<?xml version="1.0" encoding="UTF-8" standalone="no"?>
<svg
   version="1.1"
   x="0px"
   y="0px"
   viewBox="0 0 100 125"
   style="enable-background:new 0 0 100 100"
   xml:space="preserve"
   id="svg166"
   sodipodi:docname="progress-pride.svg"
   inkscape:version="1.2.2 (b0a8486541, 2022-12-01)"
   xmlns:inkscape="http://www.inkscape.org/namespaces/inkscape"
   xmlns:sodipodi="http://sodipodi.sourceforge.net/DTD/sodipodi-0.dtd"
   xmlns="http://www.w3.org/2000/svg"
   xmlns:svg="http://www.w3.org/2000/svg"><defs
     id="defs170" /><sodipodi:namedview
     id="namedview168"
     pagecolor="#505050"
     bordercolor="#ffffff"
     borderopacity="1"
     inkscape:showpageshadow="0"
     inkscape:pageopacity="0"
     inkscape:pagecheckerboard="1"
     inkscape:deskcolor="#505050"
     showgrid="false"
     inkscape:zoom="15.352"
     inkscape:cx="50.026055"
     inkscape:cy="73.117509"
     inkscape:window-width="3840"
     inkscape:window-height="2160"
     inkscape:window-x="0"
     inkscape:window-y="0"
     inkscape:window-maximized="1"
     inkscape:current-layer="layer1" /><path
     d="M94.9,24.2H69.2H7H5.7H5.5v3.5v1.9v4.1v1.7v31.9v1.7v3.9v1.8v0.1v1.1V76h63.5v0h25.8V24.2z M19,74.6l26.2-23.1L17.7,25.6  h3.6l28.5,25.9L22.7,74.6H19z M17,74.6h-4.2l26.1-23.1L10.7,25.6h4.9l27.7,25.9L17,74.6z M51,52.2l42.4,0.1v6.7H43L51,52.2z   M51.1,50.8l-8.2-7.4h50.5v7.6L51.1,50.8z M41.4,42l-9-8.1h61V42H41.4z M41.3,60.5h52.1v6.7H33.5L41.3,60.5z M93.4,25.9v6.5H30.8  l-7.5-6.8h8.4L93.4,25.9z M7,25.6h1.5l28.2,25.9L10.5,74.6H7v-1.1l25.2-22L7,29V25.6z M7,36.6l16.6,15L7,66V36.6z M7,67.7l18.6-16  L7,34.9v-4.1l23.3,20.7L7,71.6V67.7z M24.8,74.6l7.1-6.1v0h61.5v6H69.1H24.8z"
     id="path160" /><g
     inkscape:groupmode="layer"
     id="layer1"
     inkscape:label="Layer 1"><path
       style="fill:#e40303;fill-opacity:1;stroke:none;stroke-width:1.62845;stroke-linecap:round;stroke-linejoin:round;paint-order:markers fill stroke"
       d="m 27.109367,29.002736 -3.719129,-3.370897 0.664834,-0.01961 c 0.661406,-0.01951 49.163926,0.204573 62.366893,0.288132 l 6.920922,0.0438 v 3.214733 3.214734 H 62.085691 30.828496 Z"
       id="path3222" /><path
       style="fill:#ff8c00;fill-opacity:1;stroke:none;stroke-width:1.62845;stroke-linecap:round;stroke-linejoin:round;paint-order:markers fill stroke"
       d="M 36.946195,37.942327 32.497133,33.936946 H 62.92001 93.342887 v 4.005993 4.005993 l -25.973815,-5.87e-4 -25.973814,-5.86e-4 -4.449063,-4.00538 z"
       id="path5230" /><path
       style="fill:#ffed00;fill-opacity:1;stroke:none;stroke-width:1.62845;stroke-linecap:round;stroke-linejoin:round;paint-order:markers fill stroke"
       d="m 66.864252,50.860697 c -7.380146,-0.02943 -13.950697,-0.07112 -14.601224,-0.09264 l -1.182777,-0.03913 -3.865425,-3.483506 c -2.125984,-1.915928 -3.938039,-3.554336 -4.02679,-3.640907 l -0.161365,-0.157402 h 25.158108 25.158108 v 3.74544 3.745441 L 86.812793,50.9261 C 83.221242,50.9196 74.244398,50.89013 66.864252,50.8607 Z"
       id="path5648" /><path
       style="fill:#008026;fill-opacity:1;stroke:none;stroke-width:1.62845;stroke-linecap:round;stroke-linejoin:round;paint-order:markers fill stroke"
       d="m 43.186555,58.920799 c 0,-0.01605 1.766057,-1.53046 3.924571,-3.365364 l 3.92457,-3.33619 13.613861,0.0433 c 7.487624,0.02382 17.006742,0.04331 21.153596,0.04332 l 7.539734,1.7e-5 v 3.322043 3.322043 H 68.264721 c -13.792991,0 -25.078166,-0.01313 -25.078166,-0.02917 z"
       id="path6066" /><path
       style="fill:#24408e;fill-opacity:1;stroke:none;stroke-width:1.62845;stroke-linecap:round;stroke-linejoin:round;paint-order:markers fill stroke"
       d="m 33.77591,67.029627 c 0.07066,-0.07026 1.799259,-1.56429 3.841339,-3.320066 l 3.712871,-3.192319 26.006383,-0.002 26.006384,-0.002 v 3.322043 3.322043 H 63.495165 c -29.650971,0 -29.846874,-8.43e-4 -29.719255,-0.127747 z"
       id="path6346" /><path
       style="fill:#732982;fill-opacity:1;stroke:none;stroke-width:1.62845;stroke-linecap:round;stroke-linejoin:round;paint-order:markers fill stroke"
       d="m 25.177682,74.32936 c 0.07066,-0.06791 1.618395,-1.401616 3.439419,-2.963783 l 3.310951,-2.840303 H 62.63547 93.342887 v 2.963783 2.963783 H 59.196051 c -33.522085,0 -34.144485,-0.0023 -34.018369,-0.12348 z"
       id="path6764" /><path
       style="fill:#000000;fill-opacity:1;stroke:none;stroke-width:1.62845;stroke-linecap:round;stroke-linejoin:round;paint-order:markers fill stroke"
       d="m 24.602475,69.711705 c 3.038141,-2.679276 8.909445,-7.856431 13.047343,-11.504791 4.137897,-3.648358 7.523449,-6.667134 7.523449,-6.70839 0,-0.04126 -6.067613,-5.786806 -13.483585,-12.767888 C 24.27371,31.749554 18.103509,25.938615 17.978123,25.817438 l -0.227974,-0.220321 1.765844,0.01736 1.765845,0.01736 L 35.513539,38.565644 49.74524,51.499447 36.204879,63.041282 22.664519,74.583116 H 20.87155 19.078582 Z"
       id="path7182" /><path
       style="fill:#000000;fill-opacity:1;stroke:#000000;stroke-width:0.37795276;stroke-linecap:round;stroke-linejoin:round;paint-order:stroke markers fill;stroke-opacity:1;stroke-dasharray:none"
       d="M 5.5367379,50.091193 V 24.231371 H 50.156331 94.775925 V 50.091193 75.951016 H 50.156331 5.5367379 Z M 23.482282,63.210815 C 30.611647,56.923202 36.511477,51.71276 36.593015,51.632055 L 36.741268,51.485319 22.665786,38.558579 8.5903045,25.631839 7.7800402,25.613609 6.9697759,25.595378 v 1.71315 1.71315 l 12.5764731,11.228691 12.576472,11.22869 -0.157985,0.157986 c -0.08689,0.08689 -5.738976,5.030329 -12.560188,10.985417 l -12.402203,10.82743 -0.018729,0.599181 -0.018729,0.599181 1.7774574,-0.0027 1.7774576,-0.0027 z m 6.674223,-0.108288 C 37.390664,56.752378 43.311166,51.535952 43.313176,51.51047 43.315176,51.48499 37.09533,45.645342 29.491271,38.533478 l -13.82556,-12.93066 -2.507816,-1.1e-5 -2.507817,-1.2e-5 0.260553,0.240833 c 0.143303,0.132459 6.328165,5.813284 13.744137,12.624056 7.415972,6.810772 13.642425,12.529355 13.836562,12.707962 l 0.352977,0.324739 -13.001103,11.50701 c -7.150607,6.328856 -13.019716,11.537127 -13.042465,11.573935 -0.02799,0.04528 0.64482,0.06692 2.080695,0.06692 h 2.122055 z m 5.963679,0.110378 C 43.499719,56.923463 49.604935,51.711101 49.687331,51.629878 L 49.837143,51.482199 35.596998,38.540735 21.356854,25.59927 l -1.607948,0.01507 -1.607947,0.01507 1.563314,0.01884 1.563314,0.01884 14.171768,12.879718 c 7.794473,7.083844 14.184519,12.900311 14.200104,12.925481 0.01558,0.02517 -6.060489,5.235884 -13.502388,11.579363 l -13.530724,11.5336 -1.717276,-0.01735 -1.717276,-0.01735 8.792781,-7.751433 C 38.268063,57.71589 43.607548,52.990006 44.540995,52.127613 c 0.656956,-0.606948 0.668132,-0.622095 0.553674,-0.750451 -0.277036,-0.310676 -7.806264,-7.428442 -21.342341,-20.176016 -3.252589,-3.063118 -5.963,-5.57948 -6.023136,-5.591914 -0.07056,-0.01459 -0.08623,-8.49e-4 -0.0442,0.03874 0.03583,0.03374 6.118096,5.756429 13.516154,12.71709 7.398059,6.96066 13.562194,12.763377 13.698076,12.894925 l 0.247061,0.239179 -13.09555,11.546059 c -7.202551,6.350333 -13.095548,11.558878 -13.095548,11.574546 0,0.01567 0.843224,0.02849 1.873832,0.02849 h 1.873833 z m 57.287841,8.276152 v -3.028922 l -30.761464,0.0012 -30.761465,0.0012 -3.452319,2.966756 c -1.898775,1.631716 -3.480165,2.994187 -3.5142,3.027712 -0.03842,0.03785 12.930637,0.06095 34.213784,0.06095 H 93.408025 Z M 18.876097,61.404609 C 29.740027,52.033867 30.35275,51.494104 30.242694,51.391496 30.178715,51.331847 25.934732,47.561665 20.811621,43.013315 15.68851,38.464965 10.500261,33.858721 9.2821782,32.777217 8.0640959,31.695713 7.045499,30.810728 7.0186295,30.810582 c -0.02687,-1.45e-4 -0.046992,0.930396 -0.044717,2.06787 l 0.00414,2.068135 9.2761345,8.369825 c 7.96204,7.184122 9.263183,8.382777 9.184713,8.461248 -0.05028,0.05028 -4.219077,3.642431 -9.263988,7.982552 l -9.1725642,7.89113 -0.017235,2.006871 -0.017235,2.00687 0.2126496,-0.177907 C 7.2974812,71.389326 12.560489,66.852172 18.876097,61.404609 Z m 74.531928,2.430722 V 60.44815 h -26.05157 -26.05157 l -3.765392,3.230673 c -2.070966,1.77687 -3.838006,3.301101 -3.926757,3.387181 l -0.161365,0.156508 H 63.429698 93.408025 Z M 15.53038,58.656853 23.639106,51.621939 23.397849,51.381841 C 22.933005,50.919231 7.0669838,36.608192 7.0186295,36.607902 6.99176,36.60774 6.9697759,43.234995 6.9697759,51.335135 V 66.062662 L 7.1957146,65.877214 C 7.3199808,65.775218 11.07058,62.526055 15.53038,58.656853 Z M 93.408025,55.627931 V 52.24075 h -8.913099 c -4.902208,0 -14.450637,-0.01752 -21.218735,-0.03893 l -12.305633,-0.03893 -3.875717,3.299569 c -2.131644,1.814763 -3.933527,3.356513 -4.004183,3.426112 -0.127207,0.125301 0.118949,0.126542 25.09445,0.126542 h 25.222917 z m 0,-8.435383 V 43.38197 H 68.123588 c -13.906439,0 -25.262699,0.02198 -25.236131,0.04885 0.02657,0.02687 1.870789,1.694144 4.098272,3.705054 l 4.049967,3.656201 2.605523,0.04099 c 2.790564,0.0439 22.998593,0.139779 33.432126,0.158619 l 6.33468,0.01144 z m 0,-9.249609 V 33.871808 H 62.876354 c -30.440983,0 -30.531289,3.91e-4 -30.402547,0.129126 0.07102,0.07102 2.092743,1.900781 4.492719,4.066138 l 4.363594,3.937012 26.038952,0.005 26.038953,0.005 z m 0,-8.793642 v -3.289474 l -1.091063,2.54e-4 C 91.716877,25.86022 79.178609,25.800773 64.454143,25.727978 49.729677,25.655185 34.442315,25.603774 30.482228,25.613733 l -7.200159,0.01811 3.74784,3.401928 3.74784,3.401927 31.315138,0.0015 31.315138,0.0015 z"
       id="path9328" /><path
       style="fill:#613915;fill-opacity:1;stroke:#000000;stroke-width:0.0246191;stroke-linecap:round;stroke-linejoin:round;stroke-dasharray:none;stroke-opacity:1;paint-order:stroke markers fill"
       d="m 13.568223,74.405959 c -0.200893,-0.02508 -0.134482,-0.09177 1.823866,-1.831432 2.784046,-2.473155 10.790501,-9.566307 16.297593,-14.438515 7.068347,-6.253474 7.393174,-6.545121 7.393174,-6.637981 0,-0.04795 -3.363255,-3.176087 -7.4739,-6.951414 -7.98649,-7.335007 -20.354891,-18.69022 -20.399776,-18.728678 -0.01493,-0.01279 0.953418,-0.02325 2.151878,-0.02325 h 2.179018 l 1.7582,1.644737 c 0.967009,0.904605 4.468766,4.179689 7.781681,7.277964 3.312916,3.098275 8.351878,7.81753 11.197695,10.487233 2.845817,2.669703 5.332726,4.98591 5.526465,5.147127 0.193739,0.161216 0.547405,0.47736 0.785923,0.702542 l 0.43367,0.409421 -0.233352,0.209391 c -0.779439,0.699403 -5.984776,5.285586 -11.003612,9.694774 -3.206069,2.816622 -7.86641,6.91169 -10.356313,9.10015 l -4.527098,3.979019 -1.563314,-0.0075 c -0.859823,-0.0041 -1.657132,-0.01924 -1.771798,-0.03356 z"
       id="path9399" /><path
       style="fill:#74d7ee;fill-opacity:1;stroke:#000000;stroke-width:0.0246191;stroke-linecap:round;stroke-linejoin:round;stroke-dasharray:none;stroke-opacity:1;paint-order:stroke markers fill"
       d="m 7.1892727,74.306279 c 0.021602,-0.08061 0.039677,-0.28306 0.040166,-0.449892 l 8.894e-4,-0.303331 4.5759509,-3.9952 c 16.774344,-14.645448 20.05679,-17.516987 20.32725,-17.782624 0.201728,-0.198132 0.236304,-0.266663 0.183922,-0.36454 -0.03548,-0.06629 -5.709253,-5.160108 -12.608385,-11.319583 L 7.1651902,28.892064 v -1.542542 -1.542541 l 0.6676655,0.0344 c 0.5696263,0.02935 0.6915774,0.05572 0.8305106,0.179618 0.1160455,0.103482 25.0360417,22.973936 27.5065927,25.244316 l 0.246301,0.226345 -0.96282,0.849201 c -0.529551,0.46706 -3.218973,2.841343 -5.976494,5.276186 -2.75752,2.434841 -8.179236,7.218966 -12.048258,10.631388 L 10.394103,74.45284 H 8.7720496 7.1499959 Z"
       id="path11269" /><path
       style="fill:#ffafc8;fill-opacity:1;stroke:#000000;stroke-width:0.0246191;stroke-linecap:round;stroke-linejoin:round;stroke-dasharray:none;stroke-opacity:1;paint-order:stroke markers fill"
       d="m 7.1889899,70.713856 c 0.022736,-0.283056 0.041338,-1.06489 0.041338,-1.737407 v -1.22276 l 3.9245701,-3.375612 c 8.181461,-7.037059 13.901699,-11.967757 14.200105,-12.240124 0.170173,-0.155325 0.309406,-0.334293 0.309406,-0.397707 0,-0.20904 -1.043274,-1.176325 -9.542731,-8.847676 C 13.900469,40.887774 10.998567,38.268695 9.6730068,37.072394 7.596767,35.198615 7.2552666,34.864621 7.2078132,34.661392 c -0.053179,-0.227751 -0.00581,-3.258223 0.051834,-3.315863 0.032455,-0.03245 -0.261028,-0.291195 9.7737128,8.616691 4.156869,3.690073 8.763777,7.779117 10.237571,9.086764 l 2.679626,2.37754 -0.140078,0.155547 c -0.311676,0.346095 -4.187932,3.711753 -15.382391,13.356151 -3.797551,3.271716 -6.9891932,6.025459 -7.0925377,6.119428 l -0.1878991,0.170854 z"
       id="path11618" /><path
       style="fill:#ffffff;fill-opacity:1;stroke:#000000;stroke-width:0.00755906;stroke-linecap:round;stroke-linejoin:round;stroke-dasharray:none;stroke-opacity:1;paint-order:stroke markers fill;opacity:1"
       d="m 7.1807791,55.689361 c 0.00902,-5.461418 0.031188,-11.874959 0.04926,-14.252313 l 0.032858,-4.322462 4.3325679,3.899064 c 4.792535,4.313008 9.292496,8.377671 10.755732,9.715287 l 0.953334,0.87149 -0.269384,0.243159 c -0.311305,0.281 -4.731179,4.113561 -11.082307,9.609689 -2.4361648,2.108204 -4.5101818,3.907987 -4.6089267,3.999517 l -0.1795363,0.16642 z"
       id="path11829" /></g></svg>
